<?xml version="1.0" standalone="no"?>
<!DOCTYPE svg PUBLIC "-//W3C//DTD SVG 20010904//EN"
 "http://www.w3.org/TR/2001/REC-SVG-20010904/DTD/svg10.dtd">
<svg version="1.0" xmlns="http://www.w3.org/2000/svg"
 width="450.000000pt" height="449.000000pt" viewBox="0 0 450.000000 449.000000"
 preserveAspectRatio="xMidYMid meet">

<g transform="translate(0.000000,449.000000) scale(0.100000,-0.100000)"
fill="#000000" stroke="none">
<path d="M3518 4163 l-3 -318 -317 -3 -318 -2 0 -155 0 -155 318 -2 317 -3 3
-317 2 -318 155 0 155 0 2 318 3 317 318 3 317 2 0 155 0 155 -317 2 -318 3
-5 315 -5 315 -152 3 -153 3 -2 -318z"/>
<path d="M40 3835 c0 -3 0 -854 0 -1892 l0 -1888 1895 -3 1895 -2 0 1185 0
1185 -155 0 -155 0 -2 -1027 -3 -1028 -1580 0 -1580 0 0 1580 0 1580 1028 3
1027 2 0 155 0 155 -1185 0 c-652 0 -1185 -2 -1185 -5z"/>
<path d="M1300 2735 l0 -155 238 -2 237 -3 0 -630 0 -630 -237 -3 -238 -2 0
-155 0 -155 625 -2 c344 -2 630 -1 635 0 6 2 10 64 10 158 l0 154 -237 2 -238
3 -3 788 -2 787 -395 0 -395 0 0 -155z"/>
</g>
</svg>
